<svg xmlns="http://www.w3.org/2000/svg" width="40" height="30" viewBox="0 0 40 30" fill="none">
    <path fill-rule="evenodd" clip-rule="evenodd" d="M38.3177 0.925974C38.7719 1.39002 39.0272 2.0191 39.0272 2.67498C39.0272 3.33086 38.7719 3.95991 38.3177 4.42399L14.8618 28.3491C14.4069 28.8124 13.7902 29.0728 13.1471 29.0728C12.5041 29.0728 11.8874 28.8124 11.4324 28.3491L0.917732 17.6241C0.48912 17.1549 0.255791 16.5343 0.266856 15.8931C0.277953 15.2519 0.532602 14.6402 0.977196 14.1867C1.42176 13.7332 2.02155 13.4735 2.65017 13.4621C3.27878 13.4508 3.88715 13.6889 4.34714 14.126L13.1471 23.1021L34.8883 0.925974C35.3432 0.462486 35.9598 0.202148 36.603 0.202148C37.2459 0.202148 37.8628 0.462486 38.3177 0.925974Z" fill="#CCC5B9"/>
</svg>