<svg xmlns="http://www.w3.org/2000/svg" width="28" height="28" viewBox="0 0 28 28" fill="none">
    <g clip-path="url(#clip0_49_1280)">
        <path d="M14.8492 13.4079L17.1371 11.12C17.6405 10.6166 18.4567 10.6166 18.9601 11.12C19.4635 11.6234 19.4635 12.4396 18.9601 12.943L16.6722 15.2309C16.7292 15.4439 16.7595 15.6677 16.7595 15.8987C16.7595 17.3225 15.6053 18.4768 14.1814 18.4768C12.7575 18.4768 11.6033 17.3225 11.6033 15.8987C11.6033 14.4748 12.7575 13.3206 14.1814 13.3206C14.4123 13.3206 14.6362 13.3509 14.8492 13.4079Z" fill="#CCC5B9"/>
        <path fill-rule="evenodd" clip-rule="evenodd" d="M10.3142 1.28931C10.3142 0.577377 10.8913 0.000244141 11.6033 0.000244141H16.7595C17.4715 0.000244141 18.0486 0.577377 18.0486 1.28931C18.0486 2.00124 17.4715 2.57837 16.7595 2.57837H15.4705V4.29712C15.4705 4.32081 15.4698 4.34434 15.4686 4.36772C17.707 4.61479 19.7535 5.49866 21.423 6.83418L21.434 6.82311L22.723 5.53405C23.2264 5.03064 24.0426 5.03064 24.546 5.53405C25.0494 6.03746 25.0494 6.85365 24.546 7.35706L23.257 8.64612L23.2459 8.65706C24.8336 10.6418 25.783 13.1594 25.783 15.8987C25.783 22.306 20.5888 27.5002 14.1814 27.5002C7.77403 27.5002 2.57983 22.306 2.57983 15.8987C2.57983 13.1594 3.52922 10.6418 5.1169 8.65706L5.10583 8.64612L3.81677 7.35706C3.31336 6.85365 3.31336 6.03746 3.81677 5.53405C4.32018 5.03064 5.13637 5.03064 5.63978 5.53405L6.92884 6.82311L6.93978 6.83418C8.6093 5.49866 10.6558 4.61479 12.8942 4.36772C12.893 4.34434 12.8923 4.32081 12.8923 4.29712V2.57837H11.6033C10.8913 2.57837 10.3142 2.00124 10.3142 1.28931ZM14.1814 24.9221C19.1649 24.9221 23.2048 20.8822 23.2048 15.8987C23.2048 10.9152 19.1649 6.87524 14.1814 6.87524C9.19789 6.87524 5.15796 10.9152 5.15796 15.8987C5.15796 20.8822 9.19789 24.9221 14.1814 24.9221Z" fill="#CCC5B9"/>
    </g>
    <defs>
        <clipPath id="clip0_49_1280">
            <rect width="27.5" height="27.5" fill="white" transform="translate(0.431396 0.000244141)"/>
        </clipPath>
    </defs>
</svg>